<?xml version="1.0" encoding="utf-8" ?>
<svg xmlns="http://www.w3.org/2000/svg" xmlns:xlink="http://www.w3.org/1999/xlink" width="679" height="636">
	<defs>
		<linearGradient id="gradient_0" gradientUnits="userSpaceOnUse" x1="546.75745" y1="486.69589" x2="611.05438" y2="415.04828">
			<stop offset="0" stop-color="#F5522D"/>
			<stop offset="1" stop-color="#FFA267"/>
		</linearGradient>
	</defs>
	<path fill="url(#gradient_0)" d="M549.122 406.53C560.38 399.97 574.393 398.852 586.95 402.206C603.15 406.534 618.284 417.761 626.69 432.343C632.374 442.204 635.512 454.685 632.466 465.905C630.018 474.925 624.101 482.054 616.017 486.64C609.93 490.093 602.607 491.877 595.604 491.895C593.763 491.61 591.815 491.628 589.952 491.425C571.907 489.457 556.394 481.1 544.983 466.909L542.696 467.013C537.998 467.219 525.137 468.566 521.7 465.146C521.031 464.48 520.723 463.651 520.734 462.711C520.789 458.016 531.106 449.183 534.601 445.937C533.331 441.641 533.061 436.788 533.463 432.344C534.546 420.362 540.278 413.915 549.122 406.53ZM600.509 450.295C598.967 451.394 597.83 452.559 597.443 454.479C597.155 455.908 597.375 457.394 598.215 458.602C599.063 459.821 600.453 460.522 601.904 460.711C602.772 460.824 603.574 460.663 604.417 460.475C605.946 459.376 607.395 458.307 607.767 456.349C608.019 455.025 607.784 453.697 607.016 452.582C606.26 451.484 604.909 450.52 603.587 450.27C602.588 450.081 601.511 450.17 600.509 450.295ZM582.522 442.726C580.923 443.366 580.028 443.989 579.284 445.582C578.722 446.788 578.683 448.101 579.142 449.349C579.66 450.758 580.773 452.003 582.152 452.608C583.36 453.138 584.713 452.966 585.992 452.878C588.204 451.514 588.825 450.093 589.606 447.683C589.006 445.938 588.467 444.028 586.663 443.164C585.409 442.562 583.876 442.665 582.522 442.726ZM563.94 435.064C562.311 436.115 560.94 437.204 560.563 439.215C560.318 440.522 560.534 441.859 561.299 442.959C562.18 444.228 563.693 445.001 565.201 445.205C565.837 445.291 566.481 445.316 567.117 445.239C568.827 444.277 570.196 443.489 570.792 441.495C571.187 440.171 571.132 438.812 570.456 437.589C569.776 436.357 568.488 435.326 567.099 435.034C566.077 434.819 564.969 434.969 563.94 435.064Z"/>
	<defs>
		<linearGradient id="gradient_1" gradientUnits="userSpaceOnUse" x1="526.43756" y1="198.95247" x2="332.30872" y2="315.98508">
			<stop offset="0" stop-color="#CBE7EF"/>
			<stop offset="1" stop-color="white"/>
		</linearGradient>
	</defs>
	<path fill="url(#gradient_1)" d="M369.554 159.1C375.761 159.702 382.248 161.7 388.382 162.954L436.132 173.117L493.116 185.242C502.479 187.224 511.844 189.036 521.153 191.292C522.269 191.562 522.947 191.733 523.696 192.63C524.122 193.85 523.756 195.526 523.553 196.78C522.334 204.3 520.3 211.685 518.772 219.145L499.715 307.904C498.348 314.584 496.602 321.201 495.392 327.911C495.34 330.451 494.155 333.736 493.57 336.263C492.061 342.777 490.455 349.282 489.213 355.854C482.075 354.972 474.848 354.51 467.687 353.813C457.111 352.785 446.554 351.577 435.971 350.617C428.136 349.907 419.731 349.894 412.077 348.238C404.778 346.658 396.256 343.031 389.053 340.606C370.991 334.527 352.97 328.117 334.808 322.366C336.657 314.45 338.38 306.374 339.689 298.351C341.912 292.318 342.75 285.266 344.033 278.963L350.292 249.398L357.119 217.582C359.086 208.809 361.297 199.943 362.615 191.048C365.555 181.118 366.086 168.648 369.554 159.1Z"/>
	<path fill="#A6C5D8" d="M367.585 245.559C382.301 248.419 396.971 251.893 411.629 255.06L460.966 265.489C460.632 266.975 460.358 268.481 460.057 269.975C450.145 268.269 440.422 265.857 430.591 263.784L366.818 250.26C367.105 248.699 367.335 247.126 367.585 245.559Z"/>
	<path fill="#A6C5D8" d="M355.806 300.89C366.219 302.141 376.72 305.143 386.98 307.371C401.203 310.458 415.528 313.163 429.731 316.336L455.943 321.93C460.96 323.009 465.966 324.357 471.038 325.141L470.069 329.76C467.255 329.31 464.449 328.55 461.652 327.979L432.887 321.822L380.647 310.671C372.123 308.83 363.578 307.201 355.081 305.217C355.364 303.786 355.566 302.329 355.806 300.89Z"/>
	<path fill="#A6C5D8" d="M361.742 273.171C365.545 274.067 369.432 274.688 373.253 275.529L426.582 286.881C443.362 290.399 460.083 294.519 476.941 297.622L475.88 302.363C470.673 301.324 465.514 300.018 460.319 298.912L405.801 287.275L377.664 281.274C372.085 280.11 366.436 279.155 360.913 277.747C361.269 276.246 361.479 274.692 361.742 273.171Z"/>
	<path fill="#A6C5D8" d="M373.472 218.023C381.326 219.88 389.229 221.343 397.111 223.05L464.567 237.572C473.349 239.473 482.152 241.179 490.911 243.205C490.617 244.686 490.286 246.161 489.965 247.637L372.667 222.681L373.472 218.023Z"/>
	<path fill="#A6C5D8" d="M379.384 190.704C418.638 198.406 457.688 207.365 496.819 215.682C496.479 217.192 496.191 218.716 495.883 220.233C491.375 219.377 486.919 218.232 482.423 217.307L428.746 205.859C412.009 202.244 395.088 199.156 378.451 195.121L379.384 190.704Z"/>
	<path fill="#A6C5D8" d="M358.93 286.825C399.92 296.241 441.289 304.038 482.318 313.288L481.273 317.868C475.27 316.246 469.055 315.239 462.965 313.988L433.424 307.686L380.452 296.376C372.97 294.813 365.566 292.922 358.029 291.623L358.93 286.825Z"/>
	<path fill="#A6C5D8" d="M382.469 176.921C386.306 177.375 390.242 178.57 394.04 179.369L422.105 185.393L505.611 203.175L504.701 207.56C501.831 207.596 498.364 206.334 495.507 205.734L471.319 200.532L427.783 191.41C412.4 188.081 396.997 184.403 381.534 181.496L382.469 176.921Z"/>
	<path fill="#A6C5D8" d="M364.867 259.446C367.595 259.867 370.334 260.655 373.047 261.205C381.697 262.961 390.287 264.883 398.911 266.753C412.904 269.789 426.987 272.478 440.97 275.552L467.925 281.318C474.679 282.792 481.391 284.472 488.199 285.691L487.163 290.301C482.621 289.619 478.097 288.335 473.603 287.367L448.04 281.91C433.639 278.724 419.136 275.924 404.722 272.792C391.166 269.846 377.562 266.541 363.919 264.048L364.867 259.446Z"/>
	<path fill="#A6C5D8" d="M353.062 314.417C378.376 319.488 403.608 325.213 428.844 330.668C444.695 334.094 460.729 337.006 476.502 340.758C476.08 342.249 475.812 343.797 475.497 345.315C471.761 344.372 467.87 343.796 464.094 342.998L434.802 336.75C407.294 330.742 379.746 324.513 352.102 319.175L353.062 314.417Z"/>
	<path fill="#A6C5D8" d="M370.68 231.966C411.893 240.077 452.759 250.028 493.986 258.068L493.128 262.683C487.681 262.484 480.109 260.066 474.665 258.84C465.489 256.774 456.25 254.983 447.064 252.933C421.381 247.203 395.537 242.093 369.804 236.573L370.68 231.966Z"/>
	<path fill="#A6C5D8" d="M376.676 204.352C383.208 205.602 389.654 207.241 396.161 208.609L450.583 220.216C466.96 223.758 483.595 226.66 499.854 230.683C499.58 232.206 499.324 233.688 498.843 235.164C484.917 232.02 470.84 229.358 456.874 226.384L375.667 209.037C375.959 207.461 376.304 205.91 376.676 204.352Z"/>
	<path fill="#7B028B" d="M132.993 232.074C135.986 230.176 142.144 217.426 143.861 213.548C144.929 211.134 145.68 208.531 146.687 206.072C153.804 188.698 159.842 170.894 167.565 153.768C172.731 142.313 178.532 131.323 185.643 120.952C199.066 101.374 220.944 79.8087 245.162 75.422C260.624 72.6213 276.559 75.0406 289.547 84.2244C301.574 92.7287 310.744 106.309 313.256 120.939C326.102 127.302 336.755 135.999 341.464 150.06C345.166 161.113 343.508 171.554 338.58 181.825C345.788 186.433 354.314 189.153 362.615 191.048C361.297 199.943 359.086 208.809 357.119 217.582L350.292 249.398L344.033 278.963C342.75 285.266 341.912 292.318 339.689 298.351C338.38 306.374 336.657 314.45 334.808 322.366C331.967 322.029 310.332 314.469 307.633 312.819C307.199 313.286 307.028 313.543 306.861 314.176C304.334 323.782 302.774 333.68 300.621 343.376L289.743 394.417C288.738 399.265 287.476 404.075 286.526 408.93C284.922 407.933 283.234 407.119 281.541 406.285C276.969 403.181 271.658 400.756 266.778 398.131L238.712 383.025C239.719 380.531 240.209 377.6 240.865 374.985C242.616 368.002 244.07 360.955 245.807 353.973L267.366 264.326C242.504 258.819 217.85 252.357 193.05 246.583C178.43 243.179 163.782 239.785 149.226 236.117C143.859 234.764 138.257 233.742 132.993 232.074ZM232.814 132.114C230.84 133.951 228.812 135.754 227.118 137.861C219.5 145.643 215.207 156.791 215.293 167.624C215.387 179.386 220.585 189.742 228.965 197.864C241.644 210.15 260.539 215.527 277.878 215.165C288.308 214.947 298.213 212.634 307.88 208.806C313.276 211.841 327.575 221.803 333.493 220.255C334.69 219.942 335.632 219.207 336.186 218.094C338.739 212.965 332.562 198.097 331.05 192.466C333.826 189.017 336.153 185.52 338.58 181.825C343.508 171.554 345.166 161.113 341.464 150.06C336.755 135.999 326.102 127.302 313.256 120.939C313.174 120.919 313.092 120.9 313.011 120.879C308.361 119.681 304.069 117.556 299.299 116.53C280.662 112.525 259.664 115.171 243.088 124.767C239.47 126.862 235.937 129.327 232.814 132.114ZM182.419 189.226C180.63 195.689 177.475 200.888 171.502 204.256C169.435 205.422 167.071 206.276 164.821 207.018C171.941 209.001 176.414 211.973 180.069 218.492C180.972 220.103 181.484 221.925 182.417 223.487C186.163 216.027 189.317 210.57 197.712 207.818C198.489 207.564 199.27 207.327 200.061 207.118C192.197 203.956 187.151 200.756 183.712 192.664C183.233 191.536 182.785 190.395 182.419 189.226ZM306.41 260.845C304.146 267.884 301.027 272.95 294.272 276.38C292.556 277.251 290.737 277.948 288.953 278.666C294.456 279.751 299.174 282.532 302.355 287.214C304.246 289.996 305.049 293.107 306.677 295.93C307.965 289.944 310.927 285.126 316.115 281.753C318.676 280.088 321.31 279.129 324.332 278.66C317.611 276.471 311.877 273.004 308.577 266.539C307.776 264.972 307.437 262.055 306.41 260.845ZM265.068 91.0902C263.48 93.9526 262.422 95.1262 259.448 96.5538C262.823 99.5486 262.331 97.6474 265.221 102.399C266.188 99.9839 266.955 98.448 269.474 97.3751C270.091 97.1126 270.717 96.8733 271.339 96.6249C266.228 94.7184 268.037 94.0014 265.068 91.0902Z"/>
	<path fill="#FFFEFF" d="M327.691 232.02C330.587 234.977 329.072 235.82 334.068 238.25C330.996 239.804 329.523 241.363 327.941 244.358C327.592 244.061 327.719 244.225 327.493 243.779C325.993 240.815 324.683 239.646 321.746 238.324C321.84 238.281 321.934 238.239 322.026 238.193C324.98 236.727 326.606 235.178 327.691 232.02Z"/>
	<path fill="#FFFEFF" d="M284.862 238.288C285.32 238.956 285.549 239.796 285.934 240.516C287.387 243.235 289.123 243.836 291.656 245.236C291.484 245.319 291.31 245.399 291.138 245.484C288.279 246.899 286.193 248.697 285.223 251.83C285.188 251.943 285.156 252.056 285.122 252.169C284.713 251.794 284.861 251.985 284.576 251.492C282.855 248.515 281.11 246.87 278.062 245.272C281.524 243.453 283.251 241.824 284.862 238.288Z"/>
	<path fill="#F6945C" d="M307.633 312.819C318.419 308.563 329.236 303.394 339.689 298.351C338.38 306.374 336.657 314.45 334.808 322.366C331.967 322.029 310.332 314.469 307.633 312.819Z"/>
	<defs>
		<linearGradient id="gradient_2" gradientUnits="userSpaceOnUse" x1="294.49625" y1="228.83095" x2="267.42252" y2="116.29964">
			<stop offset="0" stop-color="#F5522E"/>
			<stop offset="1" stop-color="#FFA166"/>
		</linearGradient>
	</defs>
	<path fill="url(#gradient_2)" d="M232.814 132.114C235.937 129.327 239.47 126.862 243.088 124.767C259.664 115.171 280.662 112.525 299.299 116.53C304.069 117.556 308.361 119.681 313.011 120.879C313.092 120.9 313.174 120.919 313.256 120.939C326.102 127.302 336.755 135.999 341.464 150.06C345.166 161.113 343.508 171.554 338.58 181.825C336.153 185.52 333.826 189.017 331.05 192.466C332.562 198.097 338.739 212.965 336.186 218.094C335.632 219.207 334.69 219.942 333.493 220.255C327.575 221.803 313.276 211.841 307.88 208.806C298.213 212.634 288.308 214.947 277.878 215.165C260.539 215.527 241.644 210.15 228.965 197.864C220.585 189.742 215.387 179.386 215.293 167.624C215.207 156.791 219.5 145.643 227.118 137.861C228.812 135.754 230.84 133.951 232.814 132.114ZM276.331 159.557C274.159 160.387 272.586 161.177 271.58 163.409C270.84 165.05 270.736 166.929 271.396 168.614C272.058 170.306 273.358 171.497 275.044 172.143C276.163 172.571 277.214 172.711 278.402 172.638C280.374 171.654 281.959 170.495 283.404 168.807C283.748 166.37 283.985 164.232 282.412 162.109C281.202 160.476 279.299 159.798 277.347 159.607C277.01 159.574 276.67 159.566 276.331 159.557ZM298.907 162.21C296.92 163.318 295.627 164.456 295.025 166.73C294.59 168.374 294.815 170.193 295.67 171.666C296.548 173.177 298.061 174.27 299.771 174.618C301.019 174.872 302.231 174.711 303.472 174.502C305.391 173.224 307.084 171.789 307.564 169.415C307.917 167.67 307.391 165.978 306.334 164.577C305.59 163.591 304.583 162.845 303.546 162.191C302 162.166 300.452 162.111 298.907 162.21ZM252.079 157.536C249.995 158.394 248.438 159.238 247.507 161.42C246.828 163.011 246.799 164.789 247.515 166.375C248.231 167.961 249.612 169.163 251.246 169.741C252.486 170.18 253.874 170.058 255.162 169.934C256.935 169.196 258.202 168.052 259.512 166.676C259.804 164.175 260.074 161.724 258.302 159.643C257.108 158.24 255.27 157.64 253.481 157.562C253.014 157.542 252.547 157.538 252.079 157.536Z"/>
	<path fill="#F6945C" d="M232.814 132.114C232.927 133.218 233.116 133.816 232.345 134.746C231.235 136.086 229.4 137.572 227.903 138.395L227.118 137.861C228.812 135.754 230.84 133.951 232.814 132.114Z"/>
	<path fill="#7B028B" d="M286.526 408.93C287.476 404.075 288.738 399.265 289.743 394.417L300.621 343.376C302.774 333.68 304.334 323.782 306.861 314.176C307.028 313.543 307.199 313.286 307.633 312.819C310.332 314.469 331.967 322.029 334.808 322.366C352.97 328.117 370.991 334.527 389.053 340.606C396.256 343.031 404.778 346.658 412.077 348.238C419.731 349.894 428.136 349.907 435.971 350.617C446.554 351.577 457.111 352.785 467.687 353.813C474.848 354.51 482.075 354.972 489.213 355.854C490.455 349.282 492.061 342.777 493.57 336.263C494.155 333.736 495.34 330.451 495.392 327.911C496.233 331.248 518.634 353.29 522.438 359.322C520.147 373.281 516.626 387.999 513.188 401.73C524.985 404.525 537.186 404.695 549.122 406.53C540.278 413.915 534.546 420.362 533.463 432.344C533.061 436.788 533.331 441.641 534.601 445.937C531.106 449.183 520.789 458.016 520.734 462.711C520.723 463.651 521.031 464.48 521.7 465.146C525.137 468.566 537.998 467.219 542.696 467.013L544.983 466.909C556.394 481.1 571.907 489.457 589.952 491.425C591.815 491.628 593.763 491.61 595.604 491.895C593.601 501.08 590.123 510.156 586.236 518.7C579.852 532.732 572.073 544.068 574.7 560.314C575.483 565.16 577.093 569.901 579.751 574.045C592.889 594.536 621.984 595.008 641.634 606.359C650.336 611.385 657.665 618.512 663.346 626.755C664.773 628.826 668.537 633.533 668.236 636L491.62 636L477.582 636L321.734 636L308.662 636L259.603 636C250.92 627.153 242.793 617.53 234.462 608.333C222.94 595.612 211.165 583.047 199.919 570.086C203.224 569.492 206.61 569.379 209.887 568.658C212.556 568.623 215.413 567.954 218.062 567.552C222.671 566.854 227.279 566.19 231.903 565.6L289.434 557.83C296.335 556.904 303.228 555.62 310.155 554.939C308.807 546.249 307.906 537.476 306.653 528.768L300.837 486.413C299.707 478.296 298.372 470.209 297.365 462.074C297.138 459.674 296.455 457.261 296.607 454.85L297.324 454.398C297.149 454.305 279.149 450.412 277.973 450.26C278.043 447.4 279.057 444.067 279.625 441.25C281.396 432.466 283.642 423.785 285.224 414.963C285.705 412.957 286.146 410.957 286.526 408.93ZM265.44 583.522C264.133 589.078 261.245 593.606 256.37 596.683C254.288 597.997 252.242 598.805 249.86 599.432C255.636 602.085 261.717 605.315 264.179 611.644C264.683 612.938 264.933 614.689 265.693 615.823C267.472 609.463 270.586 605.107 276.386 601.813C277.94 600.93 279.544 600.237 281.207 599.587C275.269 597.466 270.307 594.439 267.491 588.548C266.829 587.163 266.371 585.75 265.895 584.296C265.705 583.714 265.827 583.923 265.44 583.522ZM530.554 488.01C529.161 493.572 526.609 497.933 521.606 500.945C519.585 502.162 517.453 502.894 515.2 503.553C518.87 504.967 522.317 506.251 525.148 509.105C527.571 511.547 528.447 514.283 530.415 516.889C530.689 517.251 530.571 517.118 531.106 517.26C534.849 510.135 538.023 506.326 545.94 503.854C546.215 503.768 546.492 503.688 546.768 503.608C540.971 502.188 536.411 499.138 533.333 493.982C532.53 492.637 531.33 488.757 530.554 488.01ZM551.414 580.496C549.82 585.585 547.081 589.591 542.279 592.151C541.003 592.831 539.609 593.272 538.223 593.669C542.582 595.813 546.567 597.833 549.212 602.119C550 603.397 550.478 605.229 551.538 606.262C554.56 600.129 557.84 596.362 564.478 594.194L564.9 594.061C559.247 591.514 554.673 588.684 552.365 582.604C552.186 582.132 552.056 581.649 551.897 581.172C551.741 580.706 551.815 580.873 551.414 580.496ZM551.504 525.503C550.292 528.605 548.794 529.867 545.925 531.36C548.504 532.828 549.98 534.259 551.604 536.738C552.842 533.986 554.174 532.839 556.92 531.627C554.387 529.895 552.797 528.346 551.504 525.503Z"/>
	<path fill="#FFFEFF" d="M348.605 485.65C349.577 486.706 349.879 488.405 350.933 489.331C351.861 490.147 353.245 490.598 354.29 491.331C354.277 491.495 354.32 491.673 354.25 491.822C354.059 492.222 350.477 493.905 348.965 497.484L348.791 497.905C347.199 494.751 345.456 493.355 342.503 491.584C345.541 490.081 347.171 488.83 348.605 485.65Z"/>
	<path fill="#FFFEFF" d="M607.87 614C608.158 614.275 608.032 614.121 608.272 614.525C609.924 617.312 611.459 618.709 614.239 620.248C611.11 621.676 609.636 623.08 608.144 626.189C607.706 625.812 607.837 625.99 607.565 625.52C605.914 622.67 604.611 621.475 601.66 620.221C604.742 618.579 606.434 617.296 607.87 614Z"/>
	<path fill="#FFFEFF" d="M334.422 513.258C337.448 516.518 335.405 517.895 341.655 520.24C338.178 522.052 336.536 523.537 334.74 527.037C334.601 527.029 334.43 527.103 334.323 527.013C334.217 526.924 333.789 525.924 333.685 525.721C332.262 522.929 330.444 521.669 327.649 520.422C331.167 518.648 333.01 516.957 334.422 513.258Z"/>
	<path fill="#FFFEFF" d="M301.112 586.144C301.597 586.665 301.805 587.49 302.126 588.123C303.764 591.344 305.942 592.933 309.292 594.092C308.317 594.544 307.336 595.009 306.402 595.542C303.521 597.189 302.137 599.602 301.308 602.709C299.344 598.296 297.135 596.082 292.735 594.031C293.222 593.9 293.712 593.755 294.187 593.588C297.697 592.356 299.562 589.294 301.112 586.144Z"/>
	<path fill="#570080" d="M308.662 636L347.134 546.771L359.51 518.117C361.997 512.356 364.159 505.904 367.593 500.631C370.449 496.245 374.79 492.945 379.64 491.029C383.831 489.373 389.504 488.661 393.917 489.657C398.904 490.783 403.752 493.208 408.426 495.229L428.633 503.979L504.193 536.584C511.033 539.612 516.591 544.518 519.382 551.619C520.842 555.333 521.992 560.535 521.342 564.533C519.939 573.161 510.139 592.853 506.165 601.987C501.286 613.202 496.814 624.637 491.74 635.763C491.703 635.844 491.66 635.921 491.62 636L477.582 636C484.799 620.353 491.343 604.353 498.178 588.534C501.202 581.535 507.363 569.277 508.973 562.281C509.461 560.157 509.186 558.16 508.482 556.111C507.684 553.79 506.452 551.858 504.556 550.277C499.886 546.382 485.067 541.399 478.643 538.33C478.517 538.676 478.389 539.021 478.254 539.363C477.455 541.383 476.512 543.745 474.332 544.607C473.097 545.095 472.229 544.876 470.998 544.511C464.105 542.462 457.285 538.878 450.662 536.034C440.696 531.753 430.485 527.739 420.68 523.115C418.786 522.222 415.856 521.033 415.193 518.893C414.442 516.468 415.958 513.861 417.044 511.776C409.542 509.079 397.658 502.165 390.677 501.052C388.374 500.685 386 500.913 383.806 501.706C381.418 502.569 379.442 504.273 378.113 506.421C375.673 510.368 373.987 514.973 372.169 519.233L363.591 539.263L335.56 604.245C331 614.797 326.79 625.687 321.734 636L308.662 636Z"/>
	<defs>
		<linearGradient id="gradient_3" gradientUnits="userSpaceOnUse" x1="404.59265" y1="499.41003" x2="420.40283" y2="641.92249">
			<stop offset="0" stop-color="#800086"/>
			<stop offset="1" stop-color="#D8038D"/>
		</linearGradient>
	</defs>
	<path fill="url(#gradient_3)" d="M321.734 636C326.79 625.687 331 614.797 335.56 604.245L363.591 539.263L372.169 519.233C373.987 514.973 375.673 510.368 378.113 506.421C379.442 504.273 381.418 502.569 383.806 501.706C386 500.913 388.374 500.685 390.677 501.052C397.658 502.165 409.542 509.079 417.044 511.776C415.958 513.861 414.442 516.468 415.193 518.893C415.856 521.033 418.786 522.222 420.68 523.115C430.485 527.739 440.696 531.753 450.662 536.034C457.285 538.878 464.105 542.462 470.998 544.511C472.229 544.876 473.097 545.095 474.332 544.607C476.512 543.745 477.455 541.383 478.254 539.363C478.389 539.021 478.517 538.676 478.643 538.33C485.067 541.399 499.886 546.382 504.556 550.277C506.452 551.858 507.684 553.79 508.482 556.111C509.186 558.16 509.461 560.157 508.973 562.281C507.363 569.277 501.202 581.535 498.178 588.534C491.343 604.353 484.799 620.353 477.582 636L321.734 636Z"/>
	<path fill="#E951C4" d="M485.563 547.653L485.854 547.503L486.24 547.737C485.898 549.554 484.873 551.313 484.096 552.984L480.981 551.454C479.938 551.051 479.061 550.761 478.265 549.954L478.36 549.372C480.199 548.151 483.384 547.994 485.563 547.653Z"/>
	<path fill="#E951C4" d="M388.636 505.469C389.47 505.383 390.342 505.285 391.179 505.374C392.8 505.546 395.154 506.592 396.135 507.907C396.457 508.339 396.29 508.501 396.198 508.988L395.24 509.637L390.675 511.509C389.935 509.542 389.06 507.528 388.636 505.469Z"/>
	<path fill="#E951C4" d="M489.443 548.911C489.559 548.925 489.677 548.93 489.793 548.952C492.209 549.396 500.439 552.926 501.566 554.925C501.965 555.633 502.066 556.262 501.871 557.04C501.55 558.317 500.56 558.805 499.514 559.448C499.426 559.486 499.342 559.536 499.249 559.563C497.124 560.182 489.331 555.687 487.202 554.565C487.794 552.631 488.229 550.565 489.443 548.911Z"/>
	<path fill="#FF6CD7" d="M489.843 550.979C490.948 551.083 491.647 551.137 492.491 551.904C492.645 553.022 492.01 553.907 491.512 554.864C490.79 554.81 490.353 554.432 489.768 554.041C489.274 553.003 489.619 552.048 489.843 550.979Z"/>
	<path fill="#FF6CD7" d="M495.18 556.805C493.97 556.208 493.455 555.965 492.882 554.72C492.961 553.689 492.949 553.734 493.699 553.02C494.995 552.815 495.443 553.077 496.655 553.516L495.18 556.805Z"/>
	<path fill="#7B028B" d="M496.655 553.516C497.464 553.338 498.088 553.335 498.857 553.746C499.589 554.137 500.129 554.869 500.304 555.684C500.502 556.61 500.306 556.988 499.836 557.768C499.052 558.203 498.345 558.481 497.426 558.265C496.73 558.101 496.041 557.809 495.377 557.547C495.293 557.311 495.15 557.056 495.18 556.805L496.655 553.516Z"/>
	<defs>
		<linearGradient id="gradient_4" gradientUnits="userSpaceOnUse" x1="474.19159" y1="508.04019" x2="326.00986" y2="300.58652">
			<stop offset="0" stop-color="#FFA360"/>
			<stop offset="1" stop-color="#FFCD60"/>
		</linearGradient>
	</defs>
	<path fill="url(#gradient_4)" d="M286.526 408.93C287.476 404.075 288.738 399.265 289.743 394.417L300.621 343.376C302.774 333.68 304.334 323.782 306.861 314.176C307.028 313.543 307.199 313.286 307.633 312.819C310.332 314.469 331.967 322.029 334.808 322.366C352.97 328.117 370.991 334.527 389.053 340.606C396.256 343.031 404.778 346.658 412.077 348.238C419.731 349.894 428.136 349.907 435.971 350.617C446.554 351.577 457.111 352.785 467.687 353.813C474.848 354.51 482.075 354.972 489.213 355.854C490.455 349.282 492.061 342.777 493.57 336.263C494.155 333.736 495.34 330.451 495.392 327.911C496.233 331.248 518.634 353.29 522.438 359.322C520.147 373.281 516.626 387.999 513.188 401.73C511.181 408.416 510.059 415.603 508.573 422.433C504.482 441.241 500.721 460.124 496.511 478.905C495.215 484.687 494.37 490.697 492.788 496.396L490.09 495.624C473.905 492.557 457.797 488.763 441.696 485.273L386.678 473.535L331.446 461.754C320.059 459.356 308.645 457.106 297.324 454.398C297.149 454.305 279.149 450.412 277.973 450.26C278.043 447.4 279.057 444.067 279.625 441.25C281.396 432.466 283.642 423.785 285.224 414.963C285.705 412.957 286.146 410.957 286.526 408.93Z"/>
	<path fill="#FEA24A" d="M301.681 439.197C302.855 437.935 324.833 427.8 327.94 426.284L403.581 389.173C409.112 395.462 414.354 402.032 419.725 408.46L451.072 446.24C453.658 449.389 463.187 460.083 464.542 462.734L464.307 463.512L465.667 464.746C465.139 464.959 465.374 464.92 464.982 464.945C458.523 458.446 452.6 451.136 446.484 444.294C431.697 427.751 417.085 411.015 402.083 394.668C391.459 399.049 380.989 403.987 370.5 408.691L331.705 425.95C327.117 428.023 304.579 438.918 301.681 439.197Z"/>
	<defs>
		<linearGradient id="gradient_5" gradientUnits="userSpaceOnUse" x1="379.66006" y1="486.55582" x2="411.76636" y2="398.9024">
			<stop offset="0" stop-color="#FFB260"/>
			<stop offset="1" stop-color="#FFEA61"/>
		</linearGradient>
	</defs>
	<path fill="url(#gradient_5)" d="M301.681 439.197C304.579 438.918 327.117 428.023 331.705 425.95L370.5 408.691C380.989 403.987 391.459 399.049 402.083 394.668C417.085 411.015 431.697 427.751 446.484 444.294C452.6 451.136 458.523 458.446 464.982 464.945C468.39 469.348 490.299 492.536 490.952 494.747C490.659 495.245 490.615 495.317 490.09 495.624C473.905 492.557 457.797 488.763 441.696 485.273L386.678 473.535L331.446 461.754C320.059 459.356 308.645 457.106 297.324 454.398C297.149 454.305 279.149 450.412 277.973 450.26C280.618 448.816 283.503 447.788 286.213 446.462C291.164 444.041 296.288 440.487 301.681 439.197Z"/>
	<defs>
		<linearGradient id="gradient_6" gradientUnits="userSpaceOnUse" x1="166.94734" y1="568.61639" x2="225.75258" y2="361.36365">
			<stop offset="0" stop-color="#FEA360"/>
			<stop offset="1" stop-color="#FED960"/>
		</linearGradient>
	</defs>
	<path fill="url(#gradient_6)" d="M53.2239 245.797C53.6151 242.176 59.2128 217.6 60.358 215.303C61.7408 214.805 64.2619 215.4 65.6977 215.682C71.583 216.841 77.3953 218.61 83.2392 219.983C99.8541 223.887 116.451 227.867 132.993 232.074C138.257 233.742 143.859 234.764 149.226 236.117C163.782 239.785 178.43 243.179 193.05 246.583C217.85 252.357 242.504 258.819 267.366 264.326L245.807 353.973C244.07 360.955 242.616 368.002 240.865 374.985C240.209 377.6 239.719 380.531 238.712 383.025L266.778 398.131C271.658 400.756 276.969 403.181 281.541 406.285C283.234 407.119 284.922 407.933 286.526 408.93C286.146 410.957 285.705 412.957 285.224 414.963C283.642 423.785 281.396 432.466 279.625 441.25C279.057 444.067 278.043 447.4 277.973 450.26C279.149 450.412 297.149 454.305 297.324 454.398L296.607 454.85C296.455 457.261 297.138 459.674 297.365 462.074C298.372 470.209 299.707 478.296 300.837 486.413L306.653 528.768C307.906 537.476 308.807 546.249 310.155 554.939C303.228 555.62 296.335 556.904 289.434 557.83L231.903 565.6C227.279 566.19 222.671 566.854 218.062 567.552C215.413 567.954 212.556 568.623 209.887 568.658C206.61 569.379 203.224 569.492 199.919 570.086C211.165 583.047 222.94 595.612 234.462 608.333C242.793 617.53 250.92 627.153 259.603 636L223.525 636L216.464 636L202.564 636L195.653 636L181.526 636L174.523 636L160.648 636L153.635 636L139.639 636L132.726 636L118.745 636L111.781 636L97.8062 636L90.8933 636L76.7209 636L69.7745 636L46.2473 636L0 636L0 235.912C11.7389 233.913 27.0442 236.463 38.248 240.143C43.3193 241.809 48.1729 244.085 53.2239 245.797ZM0 235.912L0 636L46.2473 636C37.2989 625.679 27.8832 615.682 18.7148 605.551L57.9382 570.02C65.1762 563.467 72.6211 557.058 79.6637 550.299C79.2296 547.554 78.7952 544.814 78.4777 542.053C77.131 538.601 75.7901 522.53 75.1716 517.78C73.5711 505.491 71.6205 493.251 70.0363 480.956L66.6843 456.716C65.9958 451.861 65.4852 446.916 64.5175 442.111C72.1929 434.339 80.2242 426.862 88.0819 419.274L136.183 372.788C133.857 370.932 42.1341 350.625 30.1526 346.996L29.5171 346.781C29.1635 345.76 29.5758 344.42 29.8055 343.363C30.8658 338.481 32.3675 333.664 33.5043 328.79C39.9606 301.112 47.1076 273.547 53.2239 245.797C48.1729 244.085 43.3193 241.809 38.248 240.143C27.0442 236.463 11.7389 233.913 0 235.912Z"/>
	<path fill="#D59953" d="M281.541 406.285C283.234 407.119 284.922 407.933 286.526 408.93C286.146 410.957 285.705 412.957 285.224 414.963C283.642 423.785 281.396 432.466 279.625 441.25C279.057 444.067 278.043 447.4 277.973 450.26C279.149 450.412 297.149 454.305 297.324 454.398L296.607 454.85C296.455 457.261 297.138 459.674 297.365 462.074C297.297 461.954 297.041 461.499 296.989 461.423C295.78 459.656 296.66 457.424 295.662 455.839C295.416 456.05 295.146 456.3 294.861 456.457C293.6 457.152 284.952 455.846 283.15 455.519C281.066 455.142 277.416 454.372 276.174 452.583C276.293 450.605 277.128 448.732 277.545 446.801C277.862 445.33 277.637 443.692 278.132 442.272C278.448 441.364 278.955 440.651 279.2 439.672C281.302 431.3 283.203 422.895 284.948 414.442C284.95 414.284 284.973 414.124 284.955 413.967C284.779 412.426 284.931 410.199 284.052 408.924C282.941 408.395 282.497 407.838 281.849 406.791L281.541 406.285Z"/>
	<path fill="#F6945C" d="M102.784 524.851C106.495 522.661 110.9 520.801 114.276 518.167C116.83 516.174 121.14 510.665 123.752 509.645L124.074 510.101L95.4574 536.071C90.2224 540.818 85.0648 545.746 79.6637 550.299C79.2296 547.554 78.7952 544.814 78.4777 542.053C78.9488 542.654 79.3594 543.257 79.768 543.9C88.9912 536.257 97.2942 526.942 107.388 520.391C106.087 522.169 104.469 523.459 102.784 524.851Z"/>
	<path fill="#FEA24A" d="M185.703 482.035L251.79 521.07C256.787 524.021 271.763 531.908 275.082 534.962C274.717 535.148 274.342 535.269 273.957 535.404C272.46 534.915 271.518 533.818 270.16 533.107C263.588 529.663 257.111 526.053 250.587 522.512L185.993 487.643C175.839 496.874 166.21 506.82 156.374 516.391L156.057 516.232C155.171 516.425 154.837 517.034 154.229 517.68C153.41 517.865 153.273 517.756 152.474 517.451C152.58 516.531 153.506 515.598 154.118 514.926L154.404 514.618L154.16 513.743C157.389 511.831 160.411 507.978 163.051 505.269C170.326 497.804 178.116 488.991 185.703 482.035Z"/>
	<path fill="#FEC05F" d="M185.993 487.643L250.587 522.512C257.111 526.053 263.588 529.663 270.16 533.107C271.518 533.818 272.46 534.915 273.957 535.404C274.342 535.269 274.717 535.148 275.082 534.962C282.034 539.726 289.467 543.962 296.777 548.15C300.094 550.05 304.459 551.659 307.245 554.293C306.41 554.93 304.922 554.697 303.88 554.638C303.812 554.694 303.746 554.754 303.676 554.807C303.345 555.057 302.931 555.331 302.522 555.425C301.437 555.673 300.048 555.465 298.891 555.64C293.527 556.45 288.22 557.094 282.849 557.812C268.864 559.681 254.915 561.825 240.917 563.594C234.917 564.352 228.947 565.23 222.959 566.073C221.682 566.253 219.795 566.103 218.634 566.465C218.292 566.572 218.034 566.869 217.697 566.99C215.646 567.729 212.424 567.45 210.133 567.976L209.887 568.658C206.61 569.379 203.224 569.492 199.919 570.086C193.056 563.023 186.591 555.506 179.99 548.195C171.73 539.045 163.335 530.005 155.202 520.743L155.504 520.462C155.467 520.306 155.442 520.147 155.392 519.995C155.236 519.525 155.169 519.696 155.097 519.151C154.946 518.008 155.749 517.224 156.374 516.391C166.21 506.82 175.839 496.874 185.993 487.643Z"/>
	<defs>
		<linearGradient id="gradient_7" gradientUnits="userSpaceOnUse" x1="149.39209" y1="501.57428" x2="137.07893" y2="643.50745">
			<stop offset="0" stop-color="#CBE7F0"/>
			<stop offset="1" stop-color="#F2F8F9"/>
		</linearGradient>
	</defs>
	<path fill="url(#gradient_7)" d="M123.752 509.645C125.501 507.822 133.907 499.299 135.609 499.183C141.39 500.591 148.916 514.994 151.511 515.108C151.941 515.127 152.607 514.755 152.949 514.543C153.36 514.289 153.76 514.014 154.16 513.743L154.404 514.618L154.118 514.926C153.506 515.598 152.58 516.531 152.474 517.451C153.273 517.756 153.41 517.865 154.229 517.68C154.837 517.034 155.171 516.425 156.057 516.232L156.374 516.391C155.749 517.224 154.946 518.008 155.097 519.151C155.169 519.696 155.236 519.525 155.392 519.995C155.442 520.147 155.467 520.306 155.504 520.462L155.202 520.743C163.335 530.005 171.73 539.045 179.99 548.195C186.591 555.506 193.056 563.023 199.919 570.086C211.165 583.047 222.94 595.612 234.462 608.333C242.793 617.53 250.92 627.153 259.603 636L223.525 636L216.464 636L202.564 636L195.653 636L181.526 636L174.523 636L160.648 636L153.635 636L139.639 636L132.726 636L118.745 636L111.781 636L97.8062 636L90.8933 636L76.7209 636L69.7745 636L46.2473 636C37.2989 625.679 27.8832 615.682 18.7148 605.551L57.9382 570.02C65.1762 563.467 72.6211 557.058 79.6637 550.299C85.0648 545.746 90.2224 540.818 95.4574 536.071L124.074 510.101L123.752 509.645Z"/>
	<path fill="#D59953" d="M123.752 509.645C125.501 507.822 133.907 499.299 135.609 499.183C141.39 500.591 148.916 514.994 151.511 515.108C151.941 515.127 152.607 514.755 152.949 514.543C153.36 514.289 153.76 514.014 154.16 513.743L154.404 514.618L154.118 514.926C153.506 515.598 152.58 516.531 152.474 517.451C153.273 517.756 153.41 517.865 154.229 517.68C154.837 517.034 155.171 516.425 156.057 516.232L156.374 516.391C155.749 517.224 154.946 518.008 155.097 519.151C155.169 519.696 155.236 519.525 155.392 519.995C155.442 520.147 155.467 520.306 155.504 520.462L155.202 520.743C148.505 513.886 142.317 506.481 135.792 499.451L124.074 510.101L123.752 509.645Z"/>
	<path fill="#A6C5D8" d="M216.464 636C220.552 632.583 224.595 628.916 228.4 625.185C229.496 626.378 230.629 627.551 231.646 628.812C228.95 631.212 226.285 633.675 223.525 636L216.464 636Z"/>
	<path fill="#A6C5D8" d="M212.727 620.399C213.783 621.6 214.815 622.837 215.932 623.981C211.502 628.017 207.086 632.068 202.564 636L195.653 636C201.334 630.846 207.301 625.812 212.727 620.399Z"/>
	<path fill="#A6C5D8" d="M209.549 604.338L212.859 607.729C206.951 613.287 200.876 618.677 194.864 624.12C190.464 628.103 186.138 632.266 181.526 636L174.523 636C179.145 632.279 183.457 628.078 187.853 624.091L209.549 604.338Z"/>
	<path fill="#A6C5D8" d="M193.696 599.55C194.85 600.788 196.031 602.01 197.147 603.281C184.513 613.602 173.243 625.651 160.648 636L153.635 636C161.776 628.908 169.704 621.537 177.709 614.289C183.047 609.457 188.739 604.764 193.696 599.55Z"/>
	<path fill="#A6C5D8" d="M111.781 636C127.354 621.96 143.288 608.141 158.425 593.638L161.837 597.386C157.053 600.82 152.682 605.35 148.309 609.31C138.481 618.211 128.792 627.35 118.745 636L111.781 636Z"/>
	<path fill="#A6C5D8" d="M190.696 583.397L193.929 587.178C189.305 590.955 184.934 595.116 180.507 599.122L154.813 622.41C149.796 626.96 144.853 631.678 139.639 636L132.726 636L170.9 601.454C177.493 595.474 184.367 589.647 190.696 583.397Z"/>
	<path fill="#A6C5D8" d="M90.8933 636L146.499 585.597C154.938 577.95 163.538 570.42 171.763 562.546L175.062 566.232C149.072 589.2 123.993 613.269 97.8062 636L90.8933 636Z"/>
	<path fill="#A6C5D8" d="M69.7745 636C84.6022 623.28 98.8607 609.735 113.351 596.621C128.173 583.208 143.4 570.055 157.857 556.256L161.096 559.731L105.43 610.178L87.1727 626.724C83.744 629.835 80.3714 633.16 76.7209 636L69.7745 636Z"/>
	<path fill="#A6C5D8" d="M138.918 535.458C140.144 536.305 141.208 537.79 142.215 538.904L53.5826 619.18C52.2235 618.876 51.0207 617.198 50.0829 616.211C53.1812 612.774 56.9655 609.721 60.4005 606.612L78.5878 590.159L138.918 535.458Z"/>
	<path fill="#A6C5D8" d="M133.82 521.193C135.081 521.679 136.317 523.434 137.257 524.439L44.0187 608.923C42.6894 608.522 41.5349 606.617 40.6833 605.554C52.0538 594.822 63.8754 584.496 75.4643 573.997L133.82 521.193Z"/>
	<path fill="#A6C5D8" d="M152.755 541.733C154.019 542.778 155.184 544.133 156.112 545.476C151.592 549.206 147.312 553.303 142.964 557.233L119.976 578.033C100.941 595.262 81.6988 612.321 62.9053 629.812C61.6218 629.278 60.3335 627.507 59.3513 626.485C78.7457 609.325 97.7978 591.736 116.992 574.351C128.892 563.573 141.422 553.078 152.755 541.733Z"/>
	<path fill="#7B028B" d="M0 235.912C11.7389 233.913 27.0442 236.463 38.248 240.143C43.3193 241.809 48.1729 244.085 53.2239 245.797C47.1076 273.547 39.9606 301.112 33.5043 328.79C32.3675 333.664 30.8658 338.481 29.8055 343.363C29.5758 344.42 29.1635 345.76 29.5171 346.781L30.1526 346.996C42.1341 350.625 133.857 370.932 136.183 372.788L88.0819 419.274C80.2242 426.862 72.1929 434.339 64.5175 442.111C65.4852 446.916 65.9958 451.861 66.6843 456.716L70.0363 480.956C71.6205 493.251 73.5711 505.491 75.1716 517.78C75.7901 522.53 77.131 538.601 78.4777 542.053C78.7952 544.814 79.2296 547.554 79.6637 550.299C72.6211 557.058 65.1762 563.467 57.9382 570.02L18.7148 605.551C27.8832 615.682 37.2989 625.679 46.2473 636L0 636L0 235.912ZM45.5226 382.178C43.073 389.475 39.0698 395.033 32.044 398.473C30.4113 399.272 28.674 399.931 26.9714 400.568C31.9338 402.45 35.9412 404.285 39.6367 408.247C40.4163 409.083 41.2204 409.971 41.85 410.927C42.642 412.131 44.8377 417.621 45.7845 417.942C49.554 410.719 53.8916 404.064 62.1547 401.498C63.0279 401.226 63.9181 401.007 64.8061 400.791C57.5476 397.795 51.6143 394.477 48.0077 387.123C47.2827 385.645 46.6795 383.279 45.5226 382.178Z"/>
	<path fill="#FFFEFF" d="M77.3031 371.592C79.7298 375.005 80.6702 376.836 84.5966 378.595C80.9244 380.059 79.1982 381.956 77.506 385.443C77.1349 385.026 77.2881 385.247 77.0041 384.694C75.3597 381.492 73.8246 380.091 70.5979 378.53C74.1821 376.908 75.8509 375.192 77.3031 371.592Z"/>
	<path fill="#FFFEFF" d="M28.3532 559.924C28.9199 560.449 29.2532 561.29 29.6529 561.958C31.2117 564.566 32.865 565.439 35.5714 566.511C32.1264 568.373 30.2564 569.819 28.6482 573.461C28.2612 573.101 28.4148 573.293 28.1238 572.798C26.3403 569.762 24.3858 568.143 21.3722 566.447C21.7244 566.332 22.0748 566.214 22.4201 566.079C25.5588 564.853 27.0754 562.959 28.3532 559.924Z"/>
	<path fill="#FFFEFF" d="M21.7705 271.524C24.3252 275.223 24.5115 276.442 28.8055 278.517C28.6577 278.579 28.5091 278.639 28.362 278.702C24.7686 280.245 23.3129 282.014 21.8713 285.528C20.1329 281.789 18.3424 280.131 14.6519 278.485C18.179 277.065 20.1788 274.895 21.7705 271.524Z"/>
	<path fill="#FFFEFF" d="M49.121 514.84C49.6813 515.977 50.1366 517.168 50.7299 518.286C52.9642 522.496 55.8894 524.418 60.3157 525.829C54.4373 528.522 51.575 531.239 49.1658 537.365C48.7593 536.393 48.4194 535.396 47.9985 534.431C46.0199 529.893 42.2844 527.658 37.9252 525.902C38.9927 525.554 40.0796 525.196 41.1051 524.734C45.492 522.76 47.5011 519.084 49.121 514.84Z"/>
	<defs>
		<linearGradient id="gradient_8" gradientUnits="userSpaceOnUse" x1="103.08949" y1="384.18195" x2="190.08456" y2="223.54314">
			<stop offset="0" stop-color="#FEA460"/>
			<stop offset="1" stop-color="#FFDE61"/>
		</linearGradient>
	</defs>
	<path fill="url(#gradient_8)" d="M53.2239 245.797C53.6151 242.176 59.2128 217.6 60.358 215.303C61.7408 214.805 64.2619 215.4 65.6977 215.682C71.583 216.841 77.3953 218.61 83.2392 219.983C99.8541 223.887 116.451 227.867 132.993 232.074C138.257 233.742 143.859 234.764 149.226 236.117C163.782 239.785 178.43 243.179 193.05 246.583C217.85 252.357 242.504 258.819 267.366 264.326L245.807 353.973C244.07 360.955 242.616 368.002 240.865 374.985C240.209 377.6 239.719 380.531 238.712 383.025C234.05 380.737 229.494 378.141 224.913 375.691C222.152 374.214 218.855 372.809 216.382 370.907C199.598 362.211 182.604 353.374 166.338 343.755C161.213 348.24 156.431 353.211 151.529 357.942C146.427 362.866 141.092 367.681 136.183 372.788C133.857 370.932 42.1341 350.625 30.1526 346.996L29.5171 346.781C29.1635 345.76 29.5758 344.42 29.8055 343.363C30.8658 338.481 32.3675 333.664 33.5043 328.79C39.9606 301.112 47.1076 273.547 53.2239 245.797Z"/>
	<path fill="#FEA24A" d="M128.994 300.874C115.722 284.9 102.875 268.371 90.1022 251.993C86.0951 246.855 80.7595 241.726 77.6296 236.053L77.8198 235.86C80.7074 237.525 91.2002 251.01 94.2663 254.632C106.885 269.537 119.341 284.685 132.235 299.348L128.994 300.874Z"/>
	<path fill="#FEA24A" d="M241.886 275.104C237.538 278.889 230.53 281.017 225.275 283.376L206.433 291.998L180.79 303.954C176.273 306.049 171.768 308.383 167.103 310.12C179.864 327.009 193.933 342.961 206.531 359.964C202.33 358.247 169.6 318.083 163.961 311.674C157.611 314.814 151.076 317.646 144.664 320.669C141.896 317.54 133.513 305.11 130.748 303.98C122.923 307.577 114.92 310.764 106.977 314.087C89.3277 321.472 71.5818 328.688 54.0863 336.431L53.7252 335.868C54.4629 335.034 55.5018 334.591 56.4868 334.108C63.0861 330.874 70.0106 328.214 76.6835 325.108C94.0459 317.025 111.368 308.734 128.933 301.101L128.994 300.874L132.235 299.348L134.545 302.037C138.269 306.58 142.225 310.953 145.9 315.528L161.684 308.835L164.97 307.516C190.41 296.269 216.446 286.364 241.886 275.104Z"/>
	<path fill="#F6945C" d="M164.97 307.516C165.724 308.533 166.272 308.977 166.362 310.259C166.093 310.678 166.071 310.925 165.558 311.07C164.857 311.268 163.891 311.198 163.285 310.751C162.662 310.291 162.143 309.456 161.684 308.835L164.97 307.516Z"/>
	<path fill="#F6945C" d="M132.235 299.348L134.545 302.037C133.797 303.035 132.168 303.447 131.032 303.901C130.631 302.816 129.698 301.954 128.933 301.101L128.994 300.874L132.235 299.348Z"/>
	<defs>
		<linearGradient id="gradient_9" gradientUnits="userSpaceOnUse" x1="130.353" y1="389.78964" x2="108.95065" y2="310.33487">
			<stop offset="0" stop-color="#FA935E"/>
			<stop offset="1" stop-color="#FFCA61"/>
		</linearGradient>
	</defs>
	<path fill="url(#gradient_9)" d="M130.748 303.98C133.513 305.11 141.896 317.54 144.664 320.669C151.076 317.646 157.611 314.814 163.961 311.674C169.6 318.083 202.33 358.247 206.531 359.964C207.824 361.359 216.334 370.115 216.382 370.907C199.598 362.211 182.604 353.374 166.338 343.755C161.213 348.24 156.431 353.211 151.529 357.942C146.427 362.866 141.092 367.681 136.183 372.788C133.857 370.932 42.1341 350.625 30.1526 346.996C32.2676 343.627 50.039 340.071 54.0863 336.431C71.5818 328.688 89.3277 321.472 106.977 314.087C114.92 310.764 122.923 307.577 130.748 303.98Z"/>
</svg>
